<?xml version="1.0"?>
<svg xmlns="http://www.w3.org/2000/svg" xmlns:xlink="http://www.w3.org/1999/xlink" xmlns:svgjs="http://svgjs.com/svgjs" version="1.1" width="512" height="512" x="0" y="0" viewBox="0 0 475.293 475.293" style="enable-background:new 0 0 512 512" xml:space="preserve" class=""><circle r="237.6465" cx="237.6465" cy="237.6465" fill="#1a75ff" shape="circle"/><g transform="matrix(0.7,0,0,0.7,71.29410095214845,71.29396476745606)"><path xmlns="http://www.w3.org/2000/svg" d="m475.293 178.235h-80.708l-84.791-141.32c-4.206-7.02-13.33-9.312-20.379-5.091-7.035 4.221-9.312 13.344-5.091 20.379l75.619 126.032h-244.592l75.619-126.033c4.221-7.035 1.944-16.158-5.091-20.379-7.064-4.221-16.158-1.929-20.379 5.091l-84.791 141.32h-80.709v29.706h32.237l37.734 201.283c3.945 21.076 22.366 36.364 43.805 36.364h247.742c21.438 0 39.859-15.288 43.79-36.349l37.747-201.298h32.239c-.001 0-.001-29.705-.001-29.705zm-99.184 225.535c-1.305 7.02-7.441 12.112-14.592 12.112h-247.741c-7.151 0-13.286-5.091-14.606-12.126l-36.719-195.816h350.392s-36.734 195.83-36.734 195.83z" fill="#fff6f6" data-original="#000000" style="" class=""/></g></svg>
