<?xml version="1.0"?>
<svg xmlns="http://www.w3.org/2000/svg" xmlns:xlink="http://www.w3.org/1999/xlink" xmlns:svgjs="http://svgjs.com/svgjs" version="1.1" width="512" height="512" x="0" y="0" viewBox="0 0 38.133 38.133" style="enable-background:new 0 0 512 512" xml:space="preserve" class=""><circle r="19.0665" cx="19.0665" cy="19.0665" fill="#1a75ff" shape="circle" transform="matrix(1,0,0,1,0,0)"/><g transform="matrix(0.5499999999999999,0,0,0.5499999999999999,8.580149955122032,8.579925620555876)">
<g xmlns="http://www.w3.org/2000/svg">
	<path style="" d="M35.459,9.015h-8.148V1.253c0-0.345-0.28-0.625-0.625-0.625h-15.24c-0.345,0-0.625,0.28-0.625,0.625   v7.762H2.674c-0.325,0-0.599,0.254-0.623,0.578L0.002,36.834c-0.013,0.173,0.047,0.345,0.164,0.47   c0.117,0.128,0.284,0.201,0.459,0.201h36.884c0.175,0,0.342-0.073,0.458-0.2c0.118-0.126,0.178-0.298,0.165-0.472l-2.049-27.24   C36.059,9.269,35.785,9.015,35.459,9.015z M26.686,12.976c0.316,0,0.573,0.256,0.573,0.57c0,0.315-0.257,0.572-0.573,0.572   s-0.573-0.257-0.573-0.572C26.113,13.232,26.37,12.976,26.686,12.976z M12.071,1.879h13.99v7.137h-13.99V1.879z M11.446,12.976   c0.316,0,0.573,0.256,0.573,0.57c0,0.315-0.257,0.572-0.573,0.572s-0.573-0.257-0.573-0.572   C10.873,13.232,11.13,12.976,11.446,12.976z M1.298,36.256l1.955-25.99h7.568v1.578c-0.697,0.256-1.198,0.92-1.198,1.703   c0,1.005,0.818,1.822,1.823,1.822s1.823-0.817,1.823-1.822c0-0.783-0.501-1.447-1.198-1.703v-1.578h13.99v1.578   c-0.697,0.256-1.198,0.92-1.198,1.703c0,1.005,0.818,1.822,1.823,1.822c1.005,0,1.823-0.817,1.823-1.822   c0-0.783-0.501-1.447-1.198-1.703v-1.578h7.569l1.955,25.99H1.298z" fill="#f8f7f9" data-original="#010002"/>
</g>
<g xmlns="http://www.w3.org/2000/svg">
</g>
<g xmlns="http://www.w3.org/2000/svg">
</g>
<g xmlns="http://www.w3.org/2000/svg">
</g>
<g xmlns="http://www.w3.org/2000/svg">
</g>
<g xmlns="http://www.w3.org/2000/svg">
</g>
<g xmlns="http://www.w3.org/2000/svg">
</g>
<g xmlns="http://www.w3.org/2000/svg">
</g>
<g xmlns="http://www.w3.org/2000/svg">
</g>
<g xmlns="http://www.w3.org/2000/svg">
</g>
<g xmlns="http://www.w3.org/2000/svg">
</g>
<g xmlns="http://www.w3.org/2000/svg">
</g>
<g xmlns="http://www.w3.org/2000/svg">
</g>
<g xmlns="http://www.w3.org/2000/svg">
</g>
<g xmlns="http://www.w3.org/2000/svg">
</g>
<g xmlns="http://www.w3.org/2000/svg">
</g>
</g></svg>
